<mxfile host="app.diagrams.net" modified="2021-11-22T13:14:15.932Z" agent="5.0 (X11)" etag="AfT1mwNlorJ45yE02bsV" version="15.8.3" type="github">
  <diagram name="Page-1" id="c4acf3e9-155e-7222-9cf6-157b1a14988f">
    <mxGraphModel dx="1355" dy="894" grid="1" gridSize="10" guides="1" tooltips="1" connect="1" arrows="1" fold="1" page="1" pageScale="1" pageWidth="850" pageHeight="1100" background="none" math="0" shadow="0">
      <root>
        <mxCell id="0" />
        <mxCell id="1" parent="0" />
        <mxCell id="p6ZRB52wcveuIbpnG_6O-1" value="&lt;div&gt;main.py&lt;/div&gt;&lt;div&gt;&lt;br&gt;&lt;/div&gt;&lt;div&gt;Набор функций из других файлов, составляющий всю программу&lt;br&gt;&lt;/div&gt;" style="rounded=0;whiteSpace=wrap;html=1;" vertex="1" parent="1">
          <mxGeometry x="343" y="449" width="165" height="100" as="geometry" />
        </mxCell>
        <mxCell id="p6ZRB52wcveuIbpnG_6O-2" value="&lt;div&gt;model.py&lt;/div&gt;&lt;div&gt;&lt;br&gt;&lt;/div&gt;&lt;div&gt;Функции взаимодействия объектов&lt;br&gt;&lt;/div&gt;" style="rounded=0;whiteSpace=wrap;html=1;" vertex="1" parent="1">
          <mxGeometry x="365" y="630" width="120" height="80" as="geometry" />
        </mxCell>
        <mxCell id="p6ZRB52wcveuIbpnG_6O-4" value="" style="endArrow=none;html=1;rounded=0;exitX=0.5;exitY=0;exitDx=0;exitDy=0;entryX=0.5;entryY=1;entryDx=0;entryDy=0;strokeWidth=2;" edge="1" parent="1" source="p6ZRB52wcveuIbpnG_6O-2" target="p6ZRB52wcveuIbpnG_6O-1">
          <mxGeometry width="50" height="50" relative="1" as="geometry">
            <mxPoint x="570" y="600" as="sourcePoint" />
            <mxPoint x="620" y="550" as="targetPoint" />
          </mxGeometry>
        </mxCell>
        <mxCell id="p6ZRB52wcveuIbpnG_6O-5" value="&lt;div&gt;visual.py&lt;/div&gt;&lt;div&gt;&lt;br&gt;&lt;/div&gt;&lt;div&gt;Интерфейс и функции отрисовки объектов&lt;br&gt;&lt;/div&gt;" style="rounded=0;whiteSpace=wrap;html=1;" vertex="1" parent="1">
          <mxGeometry x="365" y="290" width="120" height="80" as="geometry" />
        </mxCell>
        <mxCell id="p6ZRB52wcveuIbpnG_6O-7" value="" style="endArrow=none;html=1;rounded=0;strokeWidth=2;entryX=0.5;entryY=1;entryDx=0;entryDy=0;exitX=0.5;exitY=0;exitDx=0;exitDy=0;" edge="1" parent="1" source="p6ZRB52wcveuIbpnG_6O-1" target="p6ZRB52wcveuIbpnG_6O-5">
          <mxGeometry width="50" height="50" relative="1" as="geometry">
            <mxPoint x="570" y="600" as="sourcePoint" />
            <mxPoint x="620" y="550" as="targetPoint" />
          </mxGeometry>
        </mxCell>
        <mxCell id="p6ZRB52wcveuIbpnG_6O-8" value="&lt;div&gt;objects.py&lt;/div&gt;&lt;div&gt;&lt;br&gt;&lt;/div&gt;&lt;div&gt;Классы моделей, участвующих во взаимодействии&lt;br&gt;&lt;/div&gt;" style="rounded=0;whiteSpace=wrap;html=1;" vertex="1" parent="1">
          <mxGeometry x="70" y="453.5" width="120" height="91" as="geometry" />
        </mxCell>
        <mxCell id="p6ZRB52wcveuIbpnG_6O-9" value="" style="endArrow=none;html=1;rounded=0;strokeWidth=2;exitX=0;exitY=0.5;exitDx=0;exitDy=0;" edge="1" parent="1" source="p6ZRB52wcveuIbpnG_6O-2">
          <mxGeometry width="50" height="50" relative="1" as="geometry">
            <mxPoint x="570" y="600" as="sourcePoint" />
            <mxPoint x="130" y="670" as="targetPoint" />
          </mxGeometry>
        </mxCell>
        <mxCell id="p6ZRB52wcveuIbpnG_6O-10" value="" style="endArrow=none;html=1;rounded=0;strokeWidth=2;entryX=0.5;entryY=1;entryDx=0;entryDy=0;" edge="1" parent="1" target="p6ZRB52wcveuIbpnG_6O-8">
          <mxGeometry width="50" height="50" relative="1" as="geometry">
            <mxPoint x="130" y="670" as="sourcePoint" />
            <mxPoint x="620" y="550" as="targetPoint" />
          </mxGeometry>
        </mxCell>
        <mxCell id="p6ZRB52wcveuIbpnG_6O-11" value="" style="endArrow=none;html=1;rounded=0;strokeWidth=2;exitX=0;exitY=0.5;exitDx=0;exitDy=0;" edge="1" parent="1">
          <mxGeometry width="50" height="50" relative="1" as="geometry">
            <mxPoint x="365" y="325.4999999999998" as="sourcePoint" />
            <mxPoint x="130" y="325.4999999999998" as="targetPoint" />
          </mxGeometry>
        </mxCell>
        <mxCell id="p6ZRB52wcveuIbpnG_6O-12" value="" style="endArrow=none;html=1;rounded=0;strokeWidth=2;" edge="1" parent="1">
          <mxGeometry width="50" height="50" relative="1" as="geometry">
            <mxPoint x="130" y="325.4999999999998" as="sourcePoint" />
            <mxPoint x="130" y="325" as="targetPoint" />
            <Array as="points">
              <mxPoint x="130" y="450" />
            </Array>
          </mxGeometry>
        </mxCell>
        <mxCell id="p6ZRB52wcveuIbpnG_6O-13" value="&lt;div&gt;Multiplayer.py&lt;/div&gt;&lt;div&gt;&lt;br&gt;&lt;/div&gt;&lt;div&gt;Набор функций, отвечающих за мультиплеер&lt;br&gt;&lt;/div&gt;" style="rounded=0;whiteSpace=wrap;html=1;" vertex="1" parent="1">
          <mxGeometry x="590" y="454.5" width="120" height="89" as="geometry" />
        </mxCell>
        <mxCell id="p6ZRB52wcveuIbpnG_6O-14" value="" style="endArrow=none;html=1;rounded=0;strokeWidth=2;entryX=0;entryY=0.5;entryDx=0;entryDy=0;exitX=1;exitY=0.5;exitDx=0;exitDy=0;" edge="1" parent="1" source="p6ZRB52wcveuIbpnG_6O-1" target="p6ZRB52wcveuIbpnG_6O-13">
          <mxGeometry width="50" height="50" relative="1" as="geometry">
            <mxPoint x="570" y="600" as="sourcePoint" />
            <mxPoint x="620" y="550" as="targetPoint" />
          </mxGeometry>
        </mxCell>
        <mxCell id="p6ZRB52wcveuIbpnG_6O-15" value="Local web / Internet" style="ellipse;shape=cloud;whiteSpace=wrap;html=1;" vertex="1" parent="1">
          <mxGeometry x="565" y="280" width="170" height="80" as="geometry" />
        </mxCell>
        <mxCell id="p6ZRB52wcveuIbpnG_6O-16" value="" style="endArrow=classic;html=1;rounded=0;strokeWidth=2;entryX=0.644;entryY=0.928;entryDx=0;entryDy=0;entryPerimeter=0;" edge="1" parent="1" target="p6ZRB52wcveuIbpnG_6O-15">
          <mxGeometry relative="1" as="geometry">
            <mxPoint x="680" y="454.5" as="sourcePoint" />
            <mxPoint x="780" y="454.5" as="targetPoint" />
          </mxGeometry>
        </mxCell>
        <mxCell id="p6ZRB52wcveuIbpnG_6O-17" value="" style="shape=message;html=1;outlineConnect=0;" vertex="1" parent="p6ZRB52wcveuIbpnG_6O-16">
          <mxGeometry width="20" height="14" relative="1" as="geometry">
            <mxPoint x="-10" y="-7" as="offset" />
          </mxGeometry>
        </mxCell>
        <mxCell id="p6ZRB52wcveuIbpnG_6O-18" value="" style="endArrow=classic;html=1;rounded=0;strokeWidth=2;entryX=0.331;entryY=-0.016;entryDx=0;entryDy=0;entryPerimeter=0;exitX=0.353;exitY=0.943;exitDx=0;exitDy=0;exitPerimeter=0;" edge="1" parent="1" source="p6ZRB52wcveuIbpnG_6O-15" target="p6ZRB52wcveuIbpnG_6O-13">
          <mxGeometry relative="1" as="geometry">
            <mxPoint x="690" y="464.5" as="sourcePoint" />
            <mxPoint x="684.48" y="364.24" as="targetPoint" />
          </mxGeometry>
        </mxCell>
        <mxCell id="p6ZRB52wcveuIbpnG_6O-19" value="" style="shape=message;html=1;outlineConnect=0;" vertex="1" parent="p6ZRB52wcveuIbpnG_6O-18">
          <mxGeometry width="20" height="14" relative="1" as="geometry">
            <mxPoint x="-10" y="-7" as="offset" />
          </mxGeometry>
        </mxCell>
      </root>
    </mxGraphModel>
  </diagram>
</mxfile>
